# Exported from Wings 3D 2.2.6.1
mtllib mesa.mtl
o defaultMaterial
#20 vertices, 33 faces
v 4.56247573 2.48552588 -0.87001021
v 4.56247573 2.48552580 0.87001068
v -4.56247573 2.48552580 0.87001068
v -4.56247573 2.48552588 -0.87001021
v 7.22253114 2.48552568 3.53006552
v 7.22253114 3.06332132 3.53006555
v -7.22253114 3.06332132 3.53006555
v -7.22253114 2.48552568 3.53006552
v 7.22253114 2.48552599 -3.53006505
v 7.22253114 3.06332163 -3.53006503
v -7.22253114 2.48552599 -3.53006505
v -7.22253114 3.06332163 -3.53006503
v 2.28123916 2.48552588 -0.87001021
v 1.14061820 2.48552588 -0.87001021
v -1.14061820 2.48552588 -0.87001021
v -2.28123916 2.48552588 -0.87001021
v 2.28123916 2.48552580 0.87001068
v 1.14061820 2.48552580 0.87001068
v -1.14061820 2.48552580 0.87001068
v -2.28123916 2.48552580 0.87001068
vt 1.9920000e-3 0.25041401
vt 1.9920000e-3 0.99614800
vt 4.4813000e-2 0.25041401
vt 4.4813000e-2 0.99614800
vt 4.9201000e-2 0.25041401
vt 4.9201000e-2 0.99614800
vt 9.2022002e-2 0.25041401
vt 9.2022002e-2 0.99614800
vt 9.6409000e-2 0.25041401
vt 9.6409000e-2 0.99614800
vt 0.18578400 5.8440983e-2
vt 0.37461799 0.24223298
vt 0.38735601 0.25041401
vt 0.38735601 0.99614800
vt 0.39146301 0.25041300
vt 0.39146301 0.99614700
vt 0.44504100 0.53138399
vt 0.44504100 0.71517599
vt 0.49098900 0.53138399
vt 0.49098900 0.71517599
vt 0.51396298 0.53138399
vt 0.51396298 0.71517599
vt 0.55991101 0.53138399
vt 0.55991101 0.71517599
vt 0.56345302 0.24302500
vt 0.58288503 0.53138399
vt 0.58288503 0.71517599
vt 0.62883300 0.53138399
vt 0.62883300 0.71517599
vt 0.68241102 0.25041300
vt 0.68241102 0.99614700
vt 0.68651599 0.70716700
vt 0.68651599 0.99811400
vt 0.72933698 0.70716700
vt 0.72933698 0.99811400
vt 0.73246402 0.51612699
vt 0.73569101 0.70716700
vt 0.73569101 0.99811400
vt 0.73962498 0.42516500
vt 0.73962498 0.61636800
vt 0.77851200 0.70716700
vt 0.77851200 0.99811400
vt 0.79162699 5.5297971e-2
vt 0.89178997 0.23940802
vt 0.89895099 0.61399901
vt 0.96865702 0.80613799
vt 0.96865702 0.99614800
vt 0.99800801 0.43020701
vn -5.5679847e-19 -1.00000000 -4.3711390e-8
vn -5.5679847e-19 -1.00000000 -4.3711390e-8
vn -5.5679847e-19 -1.00000000 -4.3711390e-8
vn -5.5679847e-19 -1.00000000 -4.3711390e-8
vn 0.0000000e+0 -1.00000000 -4.3711390e-8
vn -9.8520330e-19 -1.00000000 -4.3711390e-8
vn -9.8520330e-19 -1.00000000 -4.3711390e-8
vn -9.8520330e-19 -1.00000000 -4.3711390e-8
vn 0.0000000e+0 -1.00000000 -4.3711390e-8
vn 1.4778050e-18 -1.00000000 -4.3711390e-8
vn 1.4778050e-18 -1.00000000 -4.3711390e-8
vn 0.0000000e+0 -1.00000000 -4.3711390e-8
vn 7.4239796e-19 -1.00000000 -4.3711390e-8
vn 7.4239796e-19 -1.00000000 -4.3711390e-8
vn 7.4239796e-19 -1.00000000 -4.3711390e-8
vn 0.0000000e+0 -1.00000000 -4.3711390e-8
vn 0.0000000e+0 -4.3711391e-8 1.00000000
vn 1.00000000 1.4108466e-15 0.0000000e+0
vn -7.4239796e-19 -1.00000000 -4.3711390e-8
vn -7.4239796e-19 -1.00000000 -4.3711390e-8
vn -7.4239796e-19 -1.00000000 -4.3711390e-8
vn 0.0000000e+0 -4.3711391e-8 1.00000000
vn 0.0000000e+0 -4.3711391e-8 1.00000000
vn 1.00000000 7.0542329e-16 0.0000000e+0
vn 1.00000000 7.0542329e-16 0.0000000e+0
vn 0.0000000e+0 1.00000000 4.3711390e-8
vn 0.0000000e+0 -4.3711391e-8 1.00000000
vn -1.00000000 4.8944861e-15 0.0000000e+0
vn 0.0000000e+0 1.00000000 4.3711390e-8
vn 0.0000000e+0 1.00000000 4.3711390e-8
vn 0.0000000e+0 -4.3711391e-8 1.00000000
vn 0.0000000e+0 -4.3711391e-8 1.00000000
vn -1.00000000 7.0542329e-16 0.0000000e+0
vn -1.00000000 7.0542329e-16 0.0000000e+0
vn 2.7839923e-19 -1.00000000 -4.3711390e-8
vn 2.7839923e-19 -1.00000000 -4.3711390e-8
vn 2.7839923e-19 -1.00000000 -4.3711390e-8
vn 2.7839923e-19 -1.00000000 -4.3711390e-8
vn 2.7839923e-19 -1.00000000 -4.3711390e-8
vn 2.7839923e-19 -1.00000000 -4.3711390e-8
vn 2.7839923e-19 -1.00000000 -4.3711390e-8
vn 2.7839923e-19 -1.00000000 -4.3711390e-8
vn 1.00000000 7.0542329e-16 0.0000000e+0
vn 1.00000000 7.0542329e-16 0.0000000e+0
vn 0.0000000e+0 4.3711390e-8 -1.00000000
vn 0.0000000e+0 4.3711390e-8 -1.00000000
vn 3.6420802e-19 -1.00000000 -4.3711390e-8
vn 3.6420802e-19 -1.00000000 -4.3711390e-8
vn 1.00000000 0.0000000e+0 0.0000000e+0
vn 0.0000000e+0 4.3711390e-8 -1.00000000
vn 0.0000000e+0 1.00000000 4.3711390e-8
vn 0.0000000e+0 1.00000000 4.3711390e-8
vn 0.0000000e+0 4.3711390e-8 -1.00000000
vn -1.00000000 -3.4836395e-15 0.0000000e+0
vn -1.0405943e-19 -1.00000000 -4.3711390e-8
vn -1.0405943e-19 -1.00000000 -4.3711390e-8
vn -1.0405943e-19 -1.00000000 -4.3711390e-8
vn -1.0405943e-19 -1.00000000 -4.3711390e-8
vn -1.0405943e-19 -1.00000000 -4.3711390e-8
vn -1.0405943e-19 -1.00000000 -4.3711390e-8
vn -1.0405943e-19 -1.00000000 -4.3711390e-8
vn 0.0000000e+0 4.3711390e-8 -1.00000000
vn 0.0000000e+0 4.3711390e-8 -1.00000000
vn -1.00000000 7.0542329e-16 0.0000000e+0
vn -1.00000000 7.0542329e-16 0.0000000e+0
vn 0.0000000e+0 1.00000000 4.3711390e-8
vn 0.0000000e+0 -1.00000000 -4.3711390e-8
vn 0.0000000e+0 -1.00000000 -4.3711390e-8
vn 0.0000000e+0 -1.00000000 -4.3711390e-8
vn 0.0000000e+0 -1.00000000 -4.3711390e-8
vn 0.0000000e+0 -1.00000000 -4.3711390e-8
vn 0.0000000e+0 -1.00000000 -4.3711390e-8
vn 0.0000000e+0 -1.00000000 -4.3711390e-8
vn 0.0000000e+0 -1.00000000 -4.3711390e-8
vn 0.0000000e+0 -1.00000000 -4.3711390e-8
vn 0.0000000e+0 -1.00000000 -4.3711390e-8
vn 0.0000000e+0 -1.00000000 -4.3711390e-8
vn 0.0000000e+0 -1.00000000 -4.3711390e-8
vn 0.0000000e+0 -1.00000000 -4.3711390e-8
vn 0.0000000e+0 -1.00000000 -4.3711390e-8
vn 0.0000000e+0 -1.00000000 -4.3711390e-8
vn 0.0000000e+0 -1.00000000 -4.3711390e-8
vn 0.0000000e+0 -1.00000000 -4.3711390e-8
vn 0.0000000e+0 -1.00000000 -4.3711390e-8
vn 0.0000000e+0 -1.00000000 -4.3711391e-8
vn 0.0000000e+0 -1.00000000 -4.3711391e-8
vn 0.0000000e+0 -1.00000000 -4.3711391e-8
vn 0.0000000e+0 -1.00000000 -4.3711390e-8
vn 0.0000000e+0 -1.00000000 -4.3711391e-8
vn 0.0000000e+0 -1.00000000 -4.3711391e-8
vn 0.0000000e+0 -1.00000000 -4.3711391e-8
vn 0.0000000e+0 -1.00000000 -4.3711391e-8
vn 0.0000000e+0 -1.00000000 -4.3711390e-8
vn 0.0000000e+0 -1.00000000 -4.3711390e-8
vn 0.0000000e+0 -1.00000000 -4.3711390e-8
vn 0.0000000e+0 -1.00000000 -4.3711390e-8
vn 0.0000000e+0 -1.00000000 -4.3711390e-8
vn 0.0000000e+0 -1.00000000 -4.3711390e-8
vn 0.0000000e+0 -1.00000000 -4.3711390e-8
vn 0.0000000e+0 -1.00000000 -4.3711390e-8
vn 0.0000000e+0 -1.00000000 -4.3711390e-8
vn 0.0000000e+0 -1.00000000 -4.3711390e-8
g defaultMaterial_lambert1
usemtl lambert1
s 1
f 2/36/9 17/43/88 13/40/71 1/47/5
f 4/45/16 16/12/84 20/48/102 3/46/12
f 6/35/22 8/32/31 5/33/17
f 7/34/27 8/32/32 6/35/23
f 9/42/45 12/37/62 10/38/50
f 11/41/53 12/37/63 9/42/46
f 14/25/75 18/44/93 19/11/97 15/39/80
s 2
f 5/1/18 9/2/43 6/3/24
f 7/8/28 12/7/65 8/6/34
f 8/6/33 12/7/64 11/5/54
f 9/2/44 10/4/49 6/3/25
s 3
f 1/29/2 5/30/20 2/28/6
f 1/29/1 9/31/47 5/30/19
f 1/29/3 11/16/55 9/31/48
f 1/29/4 13/27/67 11/16/56
f 3/17/10 8/15/36 4/18/15
f 3/17/11 20/19/99 8/15/42
f 5/30/21 8/15/37 2/28/7
f 6/14/26 10/13/51 7/10/29
f 8/15/35 11/16/61 4/18/14
f 8/15/38 17/26/85 2/28/8
f 8/15/39 18/23/89 17/26/86
f 8/15/40 19/21/94 18/23/90
f 8/15/41 20/19/98 19/21/95
f 10/13/52 12/9/66 7/10/30
f 11/16/60 16/20/82 4/18/13
f 13/27/68 14/24/72 11/16/57
f 13/27/69 18/23/91 14/24/74
f 14/24/73 15/22/76 11/16/58
f 15/22/77 16/20/81 11/16/59
f 15/22/78 20/19/100 16/20/83
f 17/26/87 18/23/92 13/27/70
f 19/21/96 20/19/101 15/22/79
